<svg id="Layer_1" data-name="Layer 1" xmlns="http://www.w3.org/2000/svg" viewBox="0 0 512 512"><defs><style>.cls-1{fill:#141f38;}</style></defs><title>user-glyph</title><path class="cls-1" d="M345.92,317.25,256,371.2l-89.92-54A172.78,172.78,0,0,0,51.2,480a32,32,0,0,0,32,32H428.8a32,32,0,0,0,32-32A172.78,172.78,0,0,0,345.92,317.25Zm-157.44-42.3c1.15.77,2.3,1.47,3.52,2.18V303l64,38.4L320,303V277.12c1.22-.7,2.37-1.41,3.52-2.18a122.75,122.75,0,0,0,25.6-21A127,127,0,0,0,384,166.4V128a128,128,0,0,0-256,0v38.4A127,127,0,0,0,162.88,254,122.75,122.75,0,0,0,188.48,274.94Z"/></svg>